<svg version="1.1" id="Layer_1" xmlns="http://www.w3.org/2000/svg" xmlns:xlink="http://www.w3.org/1999/xlink" x="0px" y="0px" viewBox="0 0 360 360" style="enable-background:new 0 0 360 360;" xml:space="preserve">
 <style type="text/css">
  .st0{fill:#EF4126;}
 </style>
 <g>
  <path class="st0" d="M113.2,75.7c-4.4,13.3,0,26.8,8.9,35.7c8.3,8.3,40.1,40.3,58,40.3s49.5-32,58-40.3c8.9-8.9,13.3-22.4,8.9-35.7
		C240.8,57,189,8.9,180.1,0C171.3,8.9,119.5,57,113.2,75.7z M284.3,113.2c-13.3-4.4-26.8,0-35.7,8.9c-8.3,8.3-40.3,40.1-40.3,58
		s32,49.5,40.3,58c8.9,8.9,22.4,13.3,35.7,8.9c18.7-6.2,66.9-58,75.7-66.9C351.1,171,303.3,119.5,284.3,113.2z M75.7,246.8
		c13.3,4.4,26.8,0,35.7-8.9c8.3-8.3,40.3-40.1,40.3-57.8s-32-49.7-40.3-58c-8.9-8.9-22.4-13.3-35.7-8.9C57,119.5,8.9,171,0,180.1
		C8.9,189,57,240.5,75.7,246.8z M247,284.3c4.4-13.3,0-26.8-8.9-35.7c-8.6-8.3-40.3-40.3-58-40.3s-49.5,32-58,40.3
		c-8.9,8.9-13.3,22.4-8.9,35.7c6.2,18.7,58,66.9,66.9,75.7C189,351.1,240.8,303,247,284.3z">
  </path>
 </g>
</svg>