<svg version="1.1" id="Layer_1" xmlns="http://www.w3.org/2000/svg" xmlns:xlink="http://www.w3.org/1999/xlink" x="0px" y="0px"
	 width="100%" viewBox="0 0 400 400" enable-background="new 0 0 400 400" xml:space="preserve">
<path fill="#4FBCF4" opacity="1.000000" stroke="none" 
	d="
M268.000000,401.000000 
	C178.694427,401.000000 89.888847,401.000000 1.041634,401.000000 
	C1.041634,267.736084 1.041634,134.472168 1.041634,1.104123 
	C134.222183,1.104123 267.444489,1.104123 400.833374,1.104123 
	C400.833374,134.333160 400.833374,267.666565 400.833374,401.000000 
	C356.805573,401.000000 312.652802,401.000000 268.000000,401.000000 
M268.558624,154.841339 
	C268.253326,154.674927 267.948029,154.508514 267.726562,154.373154 
	C267.726562,154.373154 267.678162,154.448318 267.461060,153.866577 
	C266.923126,153.619751 266.385162,153.372940 265.919037,153.107025 
	C265.919037,153.107025 265.922424,153.181244 265.671814,152.601639 
	C264.990143,152.174652 264.308472,151.747665 263.722809,151.331116 
	C263.722809,151.331116 263.691772,151.422546 263.544067,150.730408 
	C256.273499,144.631805 248.238892,140.133072 239.046768,137.350906 
	C221.418961,132.015518 203.744949,128.100403 185.260239,131.998169 
	C182.443954,132.592041 179.722519,133.635651 176.329025,134.753342 
	C175.872665,134.785599 175.416290,134.817856 174.369385,134.466156 
	C169.371552,135.344879 163.911484,134.873627 160.139816,139.248276 
	C160.139816,139.248276 160.215347,139.296234 159.419601,139.136536 
	C154.346283,141.872070 149.272964,144.607590 144.205795,147.250443 
	C144.205795,147.250443 144.277100,147.309967 143.564941,147.251068 
	C141.790344,148.636230 140.015732,150.021378 138.252655,151.284195 
	C138.252655,151.284195 138.371674,151.314819 137.742508,151.412384 
	C137.187561,152.002304 136.632599,152.592239 136.097595,153.101074 
	C136.097595,153.101074 136.176727,153.127670 135.543747,153.202621 
	C135.029144,153.803940 134.514557,154.405273 133.999390,154.998779 
	C133.999390,154.998779 134.007339,155.000732 133.417923,155.114609 
	C133.004608,155.521561 132.591309,155.928528 132.249725,156.256927 
	C132.249725,156.256927 132.318970,156.337692 131.594604,156.275574 
	C128.804886,159.267944 126.015152,162.260315 123.112190,165.033218 
	C123.112190,165.033218 123.254189,165.235382 122.437103,165.131638 
	C117.198578,165.068542 116.563202,168.189941 117.151184,172.053696 
	C117.151184,172.053696 117.461266,172.333679 116.909973,172.394333 
	C116.615456,172.601883 116.320946,172.809448 115.462639,173.402985 
	C115.003616,174.636337 114.544594,175.869690 114.042580,177.016281 
	C114.042580,177.016281 114.119789,177.074707 113.443779,177.204391 
	C110.947266,181.059204 107.701836,184.625122 106.084175,188.818924 
	C99.159348,206.771652 94.159927,225.211685 97.165932,244.704376 
	C98.228416,251.594162 100.714287,258.264435 102.835777,265.627411 
	C102.960861,266.271454 103.085945,266.915466 103.137833,268.410553 
	C104.163681,272.057129 104.739372,275.918945 106.349266,279.286285 
	C107.792999,282.306091 110.374550,284.781860 112.545654,287.565582 
	C112.545654,287.565582 112.506943,287.672791 112.354340,288.400909 
	C113.584343,289.925079 114.814354,291.449280 115.999466,292.999420 
	C115.999466,292.999420 116.029922,292.957306 116.116058,293.555176 
	C116.510216,293.984802 116.904366,294.414398 117.216949,294.804932 
	C117.216949,294.804932 117.267654,294.730011 117.274147,295.376434 
	C117.858261,295.915131 118.442383,296.453827 118.994690,297.000183 
	C118.994690,297.000183 119.011887,296.972137 119.026917,297.654938 
	C119.704651,298.421936 120.382385,299.188965 121.022545,300.004944 
	C121.022545,300.004944 121.030075,299.943817 121.270187,300.375671 
	C121.472275,300.646027 121.727585,300.849670 121.996506,300.998383 
	C121.996506,300.998383 122.023315,300.966675 122.144295,301.667389 
	C124.394783,308.431580 129.786667,311.676483 136.000000,314.000000 
	C136.000000,314.000000 135.980896,314.018341 136.153961,314.646423 
	C137.230316,315.289886 138.306671,315.933319 139.104965,316.626648 
	C139.104965,316.626648 139.372101,316.534729 139.565277,317.163422 
	C140.493042,317.656952 141.420792,318.150452 142.256577,318.662720 
	C142.256577,318.662720 142.291946,318.575775 142.537872,319.146545 
	C143.092911,319.350281 143.647949,319.553986 144.051544,319.858429 
	C144.051544,319.858429 144.172592,319.722687 144.413467,320.376892 
	C153.975891,327.582581 164.753448,332.056396 176.523788,333.813141 
	C182.930801,334.769409 189.479797,334.774384 196.873093,335.105927 
	C199.919144,335.125244 202.965179,335.144531 206.698135,335.558411 
	C209.474701,335.529053 212.433136,336.114960 214.994537,335.357758 
	C223.493103,332.845337 232.028152,330.277039 240.182556,326.856201 
	C244.180542,325.179016 247.370056,321.574646 250.938095,318.928650 
	C250.938095,318.928650 250.869202,318.875305 251.617310,318.908203 
	C254.415848,317.395660 257.214386,315.883087 260.867615,313.908569 
	C260.867615,318.264435 260.910858,321.668060 260.858215,325.070160 
	C260.761475,331.324005 261.305450,331.930267 267.762512,331.952148 
	C277.905426,331.986572 288.048737,332.002167 298.191498,331.947876 
	C304.933502,331.911774 305.959351,330.833466 305.960693,324.092102 
	C305.966919,292.997864 306.053162,261.903076 305.868164,230.809937 
	C305.836884,225.553543 304.617493,220.304230 303.891083,214.479095 
	C303.648499,213.968384 303.405884,213.457672 303.097961,212.212677 
	C303.063110,211.475601 303.028229,210.738525 302.859680,209.244446 
	C300.823395,203.854797 298.787079,198.465134 296.840271,193.103653 
	C296.840271,193.103653 296.803070,193.189774 296.901947,192.384872 
	C294.461670,187.287811 292.159821,182.116684 289.496674,177.138855 
	C288.698090,175.646164 286.891663,174.692657 285.548798,173.342285 
	C285.548798,173.342285 285.698639,173.340103 285.532257,172.828918 
	C285.257233,172.609848 284.982208,172.390778 284.765594,172.231430 
	C284.765594,172.231430 284.698669,172.281433 284.847809,171.413757 
	C286.174988,163.941895 278.928772,164.511932 275.559875,161.398743 
	C275.559875,161.398743 275.631622,161.443466 275.444458,160.774857 
	C273.528198,159.288162 271.611908,157.801468 269.742065,156.229355 
	C269.742065,156.229355 269.823242,156.282837 269.588257,155.797577 
	C269.293182,155.602509 268.998138,155.407440 268.809265,155.219452 
	C268.809265,155.219452 268.787720,155.323700 268.558624,154.841339 
M102.418922,76.037155 
	C102.303619,84.687538 102.417946,93.349525 101.981422,101.983665 
	C101.743698,106.685844 103.004753,108.389465 107.999893,108.242981 
	C119.818977,107.896385 131.656021,108.179657 143.485809,108.177437 
	C193.804245,108.168030 244.122879,108.085747 294.440826,108.233101 
	C299.102386,108.246742 300.524963,106.901123 300.300049,102.318138 
	C299.957458,95.337769 299.973694,88.313133 300.340057,81.333679 
	C300.598511,76.409332 299.169312,74.871101 293.973236,74.887390 
	C231.992096,75.081581 170.010117,75.005753 108.028374,75.022293 
	C106.375954,75.022736 104.723595,75.266647 102.418922,76.037155 
z"/>
<path fill="#FCFEFE" opacity="1.000000" stroke="none" 
	d="
M174.959930,134.850113 
	C175.416290,134.817856 175.872665,134.785599 177.039627,134.603851 
	C196.393250,131.104141 215.055817,130.889481 233.034668,137.182159 
	C243.618546,140.886581 253.496384,146.608200 263.691772,151.422546 
	C263.691772,151.422546 263.722809,151.331116 263.793884,151.611389 
	C264.550781,152.321518 265.236603,152.751389 265.922424,153.181244 
	C265.922424,153.181244 265.919037,153.107025 266.031921,153.373077 
	C266.655914,153.908859 267.167023,154.178589 267.678162,154.448318 
	C267.678162,154.448318 267.726562,154.373154 267.778442,154.614716 
	C268.149445,155.012085 268.468597,155.167892 268.787720,155.323700 
	C268.787720,155.323700 268.809265,155.219452 268.844666,155.481262 
	C269.194489,155.923004 269.508850,156.102921 269.823242,156.282837 
	C269.823242,156.282837 269.742065,156.229355 269.873871,156.560486 
	C271.880981,158.408905 273.756317,159.926193 275.631622,161.443466 
	C275.631622,161.443466 275.559875,161.398743 275.646027,161.748413 
	C278.721008,165.492538 281.709839,168.886993 284.698669,172.281433 
	C284.698669,172.281433 284.765594,172.231430 284.807159,172.467346 
	C285.132019,172.915558 285.415344,173.127823 285.698639,173.340103 
	C285.698639,173.340103 285.548798,173.342285 285.649750,173.735718 
	C289.434845,180.482681 293.118958,186.836227 296.803070,193.189774 
	C296.803070,193.189774 296.840271,193.103653 296.815460,193.487915 
	C298.509125,199.254623 300.227570,204.637085 301.932220,210.404327 
	C302.086853,211.535904 302.255249,212.282700 302.393646,213.334076 
	C302.581360,214.417206 302.799072,215.195755 302.982300,216.417664 
	C303.290100,220.324005 303.916962,223.785889 303.930420,227.250168 
	C304.058014,260.031281 304.050323,292.812958 304.183624,325.594025 
	C304.196503,328.755737 303.270813,330.060303 299.946014,330.016327 
	C288.965179,329.871246 277.980469,329.879395 266.999115,329.999786 
	C263.818756,330.034637 262.442627,328.956879 262.536499,325.688599 
	C262.682678,320.598328 262.575134,315.500793 262.575134,310.406342 
	C262.079254,310.215851 261.583374,310.025391 261.087494,309.834900 
	C257.681396,312.848389 254.275314,315.861847 250.869202,318.875305 
	C250.869202,318.875305 250.938095,318.928650 250.585251,318.959808 
	C236.873032,328.157990 222.119232,333.512299 206.011230,335.163818 
	C202.965179,335.144531 199.919144,335.125244 196.002808,335.061035 
	C190.856125,334.503906 186.574585,334.030823 182.304245,333.472076 
	C168.591400,331.677948 156.290970,325.948730 144.172592,319.722687 
	C144.172592,319.722687 144.051544,319.858429 143.961502,319.566833 
	C143.344955,319.042053 142.818451,318.808899 142.291946,318.575775 
	C142.291946,318.575775 142.256577,318.662720 142.157410,318.375244 
	C141.162857,317.570099 140.267487,317.052399 139.372101,316.534729 
	C139.372101,316.534729 139.104965,316.626648 139.091553,316.335693 
	C138.045715,315.369263 137.013306,314.693787 135.980896,314.018341 
	C135.980896,314.018341 136.000000,314.000000 135.844162,313.709473 
	C131.133316,309.268158 126.578316,305.117432 122.023315,300.966675 
	C122.023315,300.966675 121.996506,300.998383 121.932053,300.749481 
	C121.588417,300.315002 121.309242,300.129425 121.030075,299.943817 
	C121.030075,299.943817 121.022545,300.004944 120.983566,299.673004 
	C120.300354,298.551422 119.656120,297.761780 119.011887,296.972137 
	C119.011887,296.972137 118.994690,297.000183 118.940750,296.705750 
	C118.347084,295.850891 117.807373,295.290466 117.267654,294.730011 
	C117.267654,294.730011 117.216949,294.804932 117.197060,294.533752 
	C116.794754,293.827484 116.412338,293.392395 116.029922,292.957306 
	C116.029922,292.957306 115.999466,292.999420 115.958405,292.659821 
	C114.780540,290.771088 113.643745,289.221924 112.506943,287.672791 
	C112.506943,287.672791 112.545654,287.565582 112.429031,287.195190 
	C109.278610,280.403046 106.244820,273.981293 103.211029,267.559509 
	C103.085945,266.915466 102.960861,266.271454 102.675659,264.956543 
	C97.383713,246.040604 96.156876,227.487427 101.214874,209.229813 
	C104.279182,198.168671 109.737198,187.770645 114.119789,177.074707 
	C114.119789,177.074707 114.042580,177.016281 114.350433,176.905258 
	C115.487656,175.539780 116.317009,174.285324 117.271347,172.877472 
	C117.396332,172.724060 117.461266,172.333679 117.461266,172.333679 
	C117.461266,172.333679 117.151184,172.053696 117.571426,172.049423 
	C119.745834,169.775223 121.500015,167.505310 123.254189,165.235382 
	C123.254189,165.235382 123.112190,165.033218 123.472229,165.011993 
	C126.661163,162.106415 129.490067,159.222046 132.318970,156.337692 
	C132.318970,156.337692 132.249725,156.256927 132.505951,156.238434 
	C133.177231,155.813538 133.592285,155.407135 134.007339,155.000732 
	C134.007339,155.000732 133.999390,154.998779 134.290588,154.924835 
	C135.113434,154.276489 135.645081,153.702087 136.176727,153.127670 
	C136.176727,153.127670 136.097595,153.101074 136.391159,153.068909 
	C137.247040,152.462753 137.809357,151.888794 138.371674,151.314819 
	C138.371674,151.314819 138.252655,151.284195 138.588165,151.284729 
	C140.708145,149.960175 142.492630,148.635071 144.277100,147.309967 
	C144.277100,147.309967 144.205795,147.250443 144.568848,147.266388 
	C150.026367,144.620316 155.120865,141.958267 160.215347,139.296234 
	C160.215347,139.296234 160.139816,139.248276 160.542282,139.285217 
	C165.616470,137.831497 170.288208,136.340805 174.959930,134.850113 
M259.090881,212.564194 
	C257.898987,209.456711 256.887512,206.265350 255.487778,203.254486 
	C238.166061,165.995041 187.491531,156.470718 159.260162,185.532272 
	C140.238480,205.113327 136.265076,228.851761 143.183441,254.619522 
	C154.133423,295.403168 203.491165,312.161957 237.158035,286.722778 
	C258.458832,270.627594 267.263092,241.458786 259.090881,212.564194 
z"/>
<path fill="#FCFFFE" opacity="1.000000" stroke="none" 
	d="
M102.745071,75.717087 
	C104.723595,75.266647 106.375954,75.022736 108.028374,75.022293 
	C170.010117,75.005753 231.992096,75.081581 293.973236,74.887390 
	C299.169312,74.871101 300.598511,76.409332 300.340057,81.333679 
	C299.973694,88.313133 299.957458,95.337769 300.300049,102.318138 
	C300.524963,106.901123 299.102386,108.246742 294.440826,108.233101 
	C244.122879,108.085747 193.804245,108.168030 143.485809,108.177437 
	C131.656021,108.179657 119.818977,107.896385 107.999893,108.242981 
	C103.004753,108.389465 101.743698,106.685844 101.981422,101.983665 
	C102.417946,93.349525 102.303619,84.687538 102.745071,75.717087 
z"/>
<path fill="#70BEE3" opacity="1.000000" stroke="none" 
	d="
M251.243256,318.891754 
	C254.275314,315.861847 257.681396,312.848389 261.087494,309.834900 
	C261.583374,310.025391 262.079254,310.215851 262.575134,310.406342 
	C262.575134,315.500793 262.682678,320.598328 262.536499,325.688599 
	C262.442627,328.956879 263.818756,330.034637 266.999115,329.999786 
	C277.980469,329.879395 288.965179,329.871246 299.946014,330.016327 
	C303.270813,330.060303 304.196503,328.755737 304.183624,325.594025 
	C304.050323,292.812958 304.058014,260.031281 303.930420,227.250168 
	C303.916962,223.785889 303.290100,220.324005 303.108612,216.236176 
	C303.465851,215.389114 303.691742,215.202560 303.947052,215.051636 
	C304.617493,220.304230 305.836884,225.553543 305.868164,230.809937 
	C306.053162,261.903076 305.966919,292.997864 305.960693,324.092102 
	C305.959351,330.833466 304.933502,331.911774 298.191498,331.947876 
	C288.048737,332.002167 277.905426,331.986572 267.762512,331.952148 
	C261.305450,331.930267 260.761475,331.324005 260.858215,325.070160 
	C260.910858,321.668060 260.867615,318.264435 260.867615,313.908569 
	C257.214386,315.883087 254.415848,317.395660 251.243256,318.891754 
z"/>
<path fill="#64BEE5" opacity="1.000000" stroke="none" 
	d="
M263.617920,151.076477 
	C253.496384,146.608200 243.618546,140.886581 233.034668,137.182159 
	C215.055817,130.889481 196.393250,131.104141 177.353729,134.462814 
	C179.722519,133.635651 182.443954,132.592041 185.260239,131.998169 
	C203.744949,128.100403 221.418961,132.015518 239.046768,137.350906 
	C248.238892,140.133072 256.273499,144.631805 263.617920,151.076477 
z"/>
<path fill="#70BEE3" opacity="1.000000" stroke="none" 
	d="
M113.781784,177.139557 
	C109.737198,187.770645 104.279182,198.168671 101.214874,209.229813 
	C96.156876,227.487427 97.383713,246.040604 102.532928,264.660339 
	C100.714287,258.264435 98.228416,251.594162 97.165932,244.704376 
	C94.159927,225.211685 99.159348,206.771652 106.084175,188.818924 
	C107.701836,184.625122 110.947266,181.059204 113.781784,177.139557 
z"/>
<path fill="#70BEE3" opacity="1.000000" stroke="none" 
	d="
M144.293030,320.049805 
	C156.290970,325.948730 168.591400,331.677948 182.304245,333.472076 
	C186.574585,334.030823 190.856125,334.503906 195.548645,335.112305 
	C189.479797,334.774384 182.930801,334.769409 176.523788,333.813141 
	C164.753448,332.056396 153.975891,327.582581 144.293030,320.049805 
z"/>
<path fill="#70BEE3" opacity="1.000000" stroke="none" 
	d="
M206.354675,335.361115 
	C222.119232,333.512299 236.873032,328.157990 250.578934,318.916687 
	C247.370056,321.574646 244.180542,325.179016 240.182556,326.856201 
	C232.028152,330.277039 223.493103,332.845337 214.994537,335.357758 
	C212.433136,336.114960 209.474701,335.529053 206.354675,335.361115 
z"/>
<path fill="#70BEE3" opacity="1.000000" stroke="none" 
	d="
M122.083801,301.317017 
	C126.578316,305.117432 131.133316,309.268158 135.835693,313.719513 
	C129.786667,311.676483 124.394783,308.431580 122.083801,301.317017 
z"/>
<path fill="#64BEE5" opacity="1.000000" stroke="none" 
	d="
M296.852509,192.787323 
	C293.118958,186.836227 289.434845,180.482681 285.648834,173.810638 
	C286.891663,174.692657 288.698090,175.646164 289.496674,177.138855 
	C292.159821,182.116684 294.461670,187.287811 296.852509,192.787323 
z"/>
<path fill="#70BEE3" opacity="1.000000" stroke="none" 
	d="
M103.174431,267.985046 
	C106.244820,273.981293 109.278610,280.403046 112.383270,287.161255 
	C110.374550,284.781860 107.792999,282.306091 106.349266,279.286285 
	C104.739372,275.918945 104.163681,272.057129 103.174431,267.985046 
z"/>
<path fill="#64BEE5" opacity="1.000000" stroke="none" 
	d="
M284.773254,171.847595 
	C281.709839,168.886993 278.721008,165.492538 275.629333,161.787231 
	C278.928772,164.511932 286.174988,163.941895 284.773254,171.847595 
z"/>
<path fill="#64BEE5" opacity="1.000000" stroke="none" 
	d="
M159.817474,139.216385 
	C155.120865,141.958267 150.026367,144.620316 144.565765,147.312744 
	C149.272964,144.607590 154.346283,141.872070 159.817474,139.216385 
z"/>
<path fill="#64BEE5" opacity="1.000000" stroke="none" 
	d="
M174.664658,134.658142 
	C170.288208,136.340805 165.616470,137.831497 160.542999,139.329956 
	C163.911484,134.873627 169.371552,135.344879 174.664658,134.658142 
z"/>
<path fill="#64BEE5" opacity="1.000000" stroke="none" 
	d="
M301.946014,210.019562 
	C300.227570,204.637085 298.509125,199.254623 296.770721,193.473816 
	C298.787079,198.465134 300.823395,203.854797 302.664673,209.626404 
	C302.295135,210.012100 302.120575,210.015823 301.946014,210.019562 
z"/>
<path fill="#64BEE5" opacity="1.000000" stroke="none" 
	d="
M122.845642,165.183502 
	C121.500015,167.505310 119.745834,169.775223 117.715218,172.200897 
	C116.563202,168.189941 117.198578,165.068542 122.845642,165.183502 
z"/>
<path fill="#64BEE5" opacity="1.000000" stroke="none" 
	d="
M131.956787,156.306641 
	C129.490067,159.222046 126.661163,162.106415 123.528839,165.121719 
	C126.015152,162.260315 128.804886,159.267944 131.956787,156.306641 
z"/>
<path fill="#64BEE5" opacity="1.000000" stroke="none" 
	d="
M275.538025,161.109161 
	C273.756317,159.926193 271.880981,158.408905 269.850647,156.603195 
	C271.611908,157.801468 273.528198,159.288162 275.538025,161.109161 
z"/>
<path fill="#70BEE3" opacity="1.000000" stroke="none" 
	d="
M112.430641,288.036865 
	C113.643745,289.221924 114.780540,290.771088 115.980850,292.646851 
	C114.814354,291.449280 113.584343,289.925079 112.430641,288.036865 
z"/>
<path fill="#64BEE5" opacity="1.000000" stroke="none" 
	d="
M143.921021,147.280518 
	C142.492630,148.635071 140.708145,149.960175 138.582397,151.345917 
	C140.015732,150.021378 141.790344,148.636230 143.921021,147.280518 
z"/>
<path fill="#70BEE3" opacity="1.000000" stroke="none" 
	d="
M117.146362,173.030884 
	C116.317009,174.285324 115.487656,175.539780 114.371933,176.948639 
	C114.544594,175.869690 115.003616,174.636337 116.024422,173.211411 
	C116.772926,173.023514 116.959648,173.027206 117.146362,173.030884 
z"/>
<path fill="#64BEE5" opacity="1.000000" stroke="none" 
	d="
M303.919067,214.765366 
	C303.691742,215.202560 303.465851,215.389114 303.143097,215.792816 
	C302.799072,215.195755 302.581360,214.417206 302.578979,213.318542 
	C302.794312,212.998413 303.163269,212.946960 303.163269,212.946960 
	C303.405884,213.457672 303.648499,213.968384 303.919067,214.765366 
z"/>
<path fill="#70BEE3" opacity="1.000000" stroke="none" 
	d="
M136.067429,314.332397 
	C137.013306,314.693787 138.045715,315.369263 139.230576,316.310730 
	C138.306671,315.933319 137.230316,315.289886 136.067429,314.332397 
z"/>
<path fill="#70BEE3" opacity="1.000000" stroke="none" 
	d="
M119.019402,297.313538 
	C119.656120,297.761780 120.300354,298.551422 121.002357,299.648499 
	C120.382385,299.188965 119.704651,298.421936 119.019402,297.313538 
z"/>
<path fill="#64BEE5" opacity="1.000000" stroke="none" 
	d="
M135.860229,153.165146 
	C135.645081,153.702087 135.113434,154.276489 134.290863,154.928741 
	C134.514557,154.405273 135.029144,153.803940 135.860229,153.165146 
z"/>
<path fill="#70BEE3" opacity="1.000000" stroke="none" 
	d="
M139.468689,316.849060 
	C140.267487,317.052399 141.162857,317.570099 142.203400,318.365906 
	C141.420792,318.150452 140.493042,317.656952 139.468689,316.849060 
z"/>
<path fill="#70BEE3" opacity="1.000000" stroke="none" 
	d="
M117.270905,295.053223 
	C117.807373,295.290466 118.347084,295.850891 118.956650,296.701935 
	C118.442383,296.453827 117.858261,295.915131 117.270905,295.053223 
z"/>
<path fill="#64BEE5" opacity="1.000000" stroke="none" 
	d="
M265.797119,152.891449 
	C265.236603,152.751389 264.550781,152.321518 263.745880,151.606171 
	C264.308472,151.747665 264.990143,152.174652 265.797119,152.891449 
z"/>
<path fill="#64BEE5" opacity="1.000000" stroke="none" 
	d="
M138.057098,151.363602 
	C137.809357,151.888794 137.247040,152.462753 136.381195,153.109436 
	C136.632599,152.592239 137.187561,152.002304 138.057098,151.363602 
z"/>
<path fill="#70BEE3" opacity="1.000000" stroke="none" 
	d="
M303.130615,212.579819 
	C303.163269,212.946960 302.794312,212.998413 302.608978,213.013947 
	C302.255249,212.282700 302.086853,211.535904 301.932220,210.404327 
	C302.120575,210.015823 302.295135,210.012100 302.731506,210.004913 
	C303.028229,210.738525 303.063110,211.475601 303.130615,212.579819 
z"/>
<path fill="#70BEE3" opacity="1.000000" stroke="none" 
	d="
M116.072990,293.256226 
	C116.412338,293.392395 116.794754,293.827484 117.237839,294.553284 
	C116.904366,294.414398 116.510216,293.984802 116.072990,293.256226 
z"/>
<path fill="#64BEE5" opacity="1.000000" stroke="none" 
	d="
M133.712631,155.057678 
	C133.592285,155.407135 133.177231,155.813538 132.470093,156.277710 
	C132.591309,155.928528 133.004608,155.521561 133.712631,155.057678 
z"/>
<path fill="#70BEE3" opacity="1.000000" stroke="none" 
	d="
M142.414917,318.861145 
	C142.818451,318.808899 143.344955,319.042053 144.037231,319.516479 
	C143.647949,319.553986 143.092911,319.350281 142.414917,318.861145 
z"/>
<path fill="#64BEE5" opacity="1.000000" stroke="none" 
	d="
M267.569611,154.157440 
	C267.167023,154.178589 266.655914,153.908859 265.996002,153.382629 
	C266.385162,153.372940 266.923126,153.619751 267.569611,154.157440 
z"/>
<path fill="#64BEE5" opacity="1.000000" stroke="none" 
	d="
M269.705750,156.040207 
	C269.508850,156.102921 269.194489,155.923004 268.791565,155.477722 
	C268.998138,155.407440 269.293182,155.602509 269.705750,156.040207 
z"/>
<path fill="#70BEE3" opacity="1.000000" stroke="none" 
	d="
M121.150131,300.159729 
	C121.309242,300.129425 121.588417,300.315002 121.951851,300.743591 
	C121.727585,300.849670 121.472275,300.646027 121.150131,300.159729 
z"/>
<path fill="#64BEE5" opacity="1.000000" stroke="none" 
	d="
M268.673157,155.082520 
	C268.468597,155.167892 268.149445,155.012085 267.736511,154.599182 
	C267.948029,154.508514 268.253326,154.674927 268.673157,155.082520 
z"/>
<path fill="#64BEE5" opacity="1.000000" stroke="none" 
	d="
M117.271347,172.877472 
	C116.959648,173.027206 116.772926,173.023514 116.306320,173.018417 
	C116.320946,172.809448 116.615456,172.601883 117.185623,172.364014 
	C117.461266,172.333679 117.396332,172.724060 117.271347,172.877472 
z"/>
<path fill="#64BEE5" opacity="1.000000" stroke="none" 
	d="
M285.615448,173.084503 
	C285.415344,173.127823 285.132019,172.915558 284.777954,172.437500 
	C284.982208,172.390778 285.257233,172.609848 285.615448,173.084503 
z"/>
<path fill="#50BCF3" opacity="1.000000" stroke="none" 
	d="
M259.198883,212.953644 
	C267.263092,241.458786 258.458832,270.627594 237.158035,286.722778 
	C203.491165,312.161957 154.133423,295.403168 143.183441,254.619522 
	C136.265076,228.851761 140.238480,205.113327 159.260162,185.532272 
	C187.491531,156.470718 238.166061,165.995041 255.487778,203.254486 
	C256.887512,206.265350 257.898987,209.456711 259.198883,212.953644 
z"/>
</svg>