<svg version="1.1" id="Layer_1" xmlns="http://www.w3.org/2000/svg" xmlns:xlink="http://www.w3.org/1999/xlink" x="0px" y="0px"
	 width="100%" viewBox="0 0 400 400" enable-background="new 0 0 400 400" xml:space="preserve">
<path fill="#000000" opacity="1.000000" stroke="none" 
	d="
M312.233826,305.793762 
	C312.163025,308.313538 311.110229,309.301727 309.080414,309.301422 
	C307.747406,309.301208 306.414368,309.348389 305.081360,309.348450 
	C236.583664,309.351044 168.085953,309.352112 99.588257,309.349030 
	C92.685860,309.348724 92.660736,309.336365 92.660286,302.579926 
	C92.655777,234.748871 92.708786,166.917694 92.561470,99.086960 
	C92.550728,94.139954 93.775505,92.495552 98.939415,92.547020 
	C124.269363,92.799492 149.603333,92.688545 174.935608,92.611725 
	C177.948502,92.602592 180.269455,93.304588 182.451096,95.585388 
	C187.970474,101.355698 193.764160,106.863976 199.462875,112.462021 
	C200.420990,113.403206 201.489304,114.249786 201.180313,116.002640 
	C199.600845,117.927940 197.261322,117.115044 195.242813,117.120003 
	C171.410446,117.178543 147.576828,117.258759 123.746185,117.042061 
	C118.879181,116.997803 117.144005,118.159958 117.164917,123.414124 
	C117.370544,175.078262 117.361961,226.743713 117.203575,278.408142 
	C117.188469,283.339325 118.345421,284.981567 123.560295,284.962952 
	C176.057846,284.775574 228.556351,284.857422 281.054596,284.857788 
	C287.660309,284.857849 287.705933,284.842255 287.685944,278.217743 
	C287.612000,253.720947 287.506775,229.224258 287.405334,204.727539 
	C287.401184,203.724716 287.319977,202.723068 288.177002,201.802048 
	C290.113953,201.246658 291.031158,202.839783 292.153992,203.965225 
	C297.683319,209.507507 303.066742,215.204391 308.775940,220.553970 
	C311.308014,222.926544 312.367065,225.364304 312.350433,228.818787 
	C312.227753,254.316574 312.269135,279.815125 312.233826,305.793762 
z"/>
<path fill="#000000" opacity="1.000000" stroke="none" 
	d="
M310.684509,92.998138 
	C312.590485,94.453941 312.271088,96.219299 312.272644,97.835114 
	C312.296967,123.145027 312.287994,148.454971 312.269989,173.764893 
	C312.269165,174.902786 312.442413,176.111313 311.541412,177.128403 
	C309.457245,177.890793 308.599731,176.073318 307.504120,174.998047 
	C302.278900,169.869797 297.276855,164.504410 291.896820,159.547440 
	C288.776337,156.672333 287.738098,153.466919 287.821838,149.366776 
	C288.005463,140.379044 287.735626,131.382050 287.919159,122.394310 
	C287.997955,118.536934 286.701843,117.064568 282.739624,117.152634 
	C273.253143,117.363480 263.757141,117.119919 254.268463,117.273453 
	C251.016708,117.326065 248.567825,116.329437 246.313309,114.006714 
	C240.518723,108.036827 234.546982,102.239143 228.678131,96.340706 
	C227.903244,95.561935 226.773468,94.886856 227.233734,92.834953 
	C254.819839,92.834953 282.527466,92.834953 310.684509,92.998138 
z"/>
</svg>